<?xml version="1.0" encoding="utf-8"?>
<!-- Svg Vector Icons : http://www.onlinewebfonts.com/icon -->
<!DOCTYPE svg PUBLIC "-//W3C//DTD SVG 1.1//EN" "http://www.w3.org/Graphics/SVG/1.1/DTD/svg11.dtd">
<svg version="1.1" xmlns="http://www.w3.org/2000/svg" xmlns:xlink="http://www.w3.org/1999/xlink" x="0px" y="0px" viewBox="0 0 1000 1000" enable-background="new 0 0 1000 1000" xml:space="preserve">
<metadata> Svg Vector Icons : http://www.onlinewebfonts.com/icon </metadata>
<g><path fill="#00ff00" d="M920,80H675V45c0-21-17.5-35-35-35s-35,17.5-35,35v35H391.5V45c0-21-14-35-35-35c-21,0-35,17.5-35,35v35H80c-38.5,0-70,31.5-70,70v770c0,38.5,31.5,70,70,70h840c38.5,0,70-31.5,70-70V150C990,111.5,958.5,80,920,80z M920,920H80V398.5h840V920z M920,328.5H80V150h241.5v35c0,21,14,35,35,35c21,0,35-17.5,35-35v-35H605v35c0,21,17.5,35,35,35s35-17.5,35-35v-35h245V328.5z M244.5,815h245v-42H304c35-70,185.5-66.5,185.5-175c0-56-35-98-115.5-98c-84,0-122.5,45.5-122.5,112H297c0-42,24.5-73.5,80.5-73.5c35,0,66.5,17.5,66.5,63C440.5,689,251.5,668,244.5,815z M664.5,783.5c-45.5,0-80.5-14-84-66.5H535c0,105,101.5,105,129.5,105c84,0,119-45.5,119-98c0-38.5-24.5-66.5-59.5-73.5l0,0c31.5-7,45.5-35,45.5-63c0-45.5-35-84-112-84C591,503.5,545.5,535,542,605h45.5c3.5-42,24.5-66.5,70-66.5c35,0,66.5,10.5,66.5,52.5c0,28-21,45.5-59.5,45.5H647c-3.5,0-7,0-10.5,0V675c3.5,0,10.5,0,24.5,0c45.5,0,77,21,77,56C741.5,762.5,717,783.5,664.5,783.5z"/></g>
</svg>