<?xml version="1.0" encoding="utf-8"?>
<!-- Svg Vector Icons : http://www.onlinewebfonts.com/icon -->
<!DOCTYPE svg PUBLIC "-//W3C//DTD SVG 1.1//EN" "http://www.w3.org/Graphics/SVG/1.1/DTD/svg11.dtd">
<svg version="1.1" xmlns="http://www.w3.org/2000/svg" xmlns:xlink="http://www.w3.org/1999/xlink" x="0px" y="0px" viewBox="0 0 1000 1000" enable-background="new 0 0 1000 1000" xml:space="preserve">
<metadata> Svg Vector Icons : http://www.onlinewebfonts.com/icon </metadata>
<g fill="#c2d8c0"><g transform="translate(0.000000,511.000000) scale(0.100000,-0.100000)"><path d="M2009.2,4985.6c-331.8-56.2-681.4-219.5-974.9-454.3C516.2,4117.9,217.6,3329.3,327.3,2676c30.6-183.8,153.1-574.2,178.6-574.2c7.7,0,68.9,107.2,135.3,237.3C996,3033.2,1532,3648.3,2195.5,4123c232.2,165.9,929,535.9,1077,571.7c109.8,25.5,71.5,66.4-155.7,158.2C2759.5,4995.8,2358.8,5044.3,2009.2,4985.6z"/><path d="M7271.7,4972.9c-199.1-40.8-416-114.8-551.3-188.9c-91.9-48.5-94.4-53.6-43.4-68.9c30.6-7.7,168.4-66.4,303.7-127.6C8014.3,4123,8856.6,3326.7,9359.3,2339.1c66.4-130.2,127.6-237.3,135.3-237.3c23,0,145.5,382.8,176.1,546.2c33.2,194,33.2,449.2-2.5,643.1c-137.8,778.4-658.5,1380.7-1401.1,1620.6C7973.5,5006,7547.3,5034.1,7271.7,4972.9z"/><path d="M4579.2,4587.5C2774.8,4391,1294.6,3204.2,735.7,1509.6c-515.5-1567-125-3299.9,1005.5-4479l206.7-214.4l-500.2-502.8c-538.5-541.1-558.9-571.7-518.1-788.6c23-125,176.1-278.2,301.1-301.1c219.5-40.8,245-25.5,824.4,553.8l538.5,533.4l201.6-109.7c467-257.8,949.4-428.8,1452.2-520.6c357.3-63.8,1148.5-63.8,1505.8,0c441.5,79.1,811.6,204.2,1250.5,423.7l408.3,204.2L7948-4225c576.8-576.8,602.3-592.1,821.8-551.3c125,23,278.2,176.1,301.2,301.1c40.8,216.9,20.4,247.6-515.5,788.6l-500.2,502.8l232.2,245c1268.4,1339.9,1564.5,3389.2,729.9,5048.1c-229.7,459.4-433.9,745.2-801.4,1122.9c-653.3,678.9-1485.3,1125.5-2404.1,1296.5C5531.1,4579.8,4824.2,4613,4579.2,4587.5z M5684.3,3722.3C6980.7,3472.2,8065.4,2522.8,8484,1277.4c140.4-418.6,176.1-655.9,173.5-1166.3c0-385.4-10.2-518.1-53.6-722.3c-165.9-752.9-482.4-1339.9-1013.2-1868.2c-528.3-530.8-1115.3-847.3-1868.2-1013.2c-359.8-79.1-1087.2-79.1-1442,0c-755.4,165.9-1342.4,482.4-1870.7,1013.2c-535.9,533.4-877.9,1174-1026,1919.2c-66.3,339.4-61.3,1061.7,12.8,1390.9c165.9,758,484.9,1345,1013.2,1870.7c584.4,587,1304.1,944.3,2118.3,1056.6C4775.7,3793.8,5429,3773.4,5684.3,3722.3z"/><path d="M4834.4,2933.7c-94.4-43.4-178.6-132.7-214.4-227.1c-17.9-48.5-28.1-561.5-28.1-1538.9V-299.8l992.8,7.6c959.6,7.7,997.9,10.2,1064.2,61.3c135.3,99.5,176.1,181.2,176.1,342c0,160.8-40.8,242.5-176.1,342c-63.8,51-109.7,53.6-653.3,61.3l-584.4,7.7l-7.7,1094.9c-7.7,1059.1-10.2,1094.9-61.2,1163.8c-28.1,38.3-81.7,94.4-117.4,119.9C5138.1,2964.3,4936.5,2982.2,4834.4,2933.7z"/></g></g>
</svg>